<svg width="81" height="88" viewBox="0 0 81 88" fill="none" xmlns="http://www.w3.org/2000/svg">
<g clip-path="url(#clip0_18_73)">
<path d="M34.2465 15.2241C32.1679 14.1415 30.3406 13.3105 28.5105 12.5614C31.3376 4.99179 35.4101 0 40.5644 0C45.7187 0 49.7094 4.74305 52.4517 11.9792C50.7063 12.7282 48.7943 13.644 46.7157 14.7238C44.637 8.98296 42.1432 6.40509 40.5644 6.40509C38.9857 6.40509 36.4918 9.14973 34.2465 15.2241ZM40.5644 81.0332C39.0676 81.0332 36.5737 78.4553 34.4951 72.7145C32.3345 73.7971 30.5044 74.6281 28.759 75.3772C31.5014 82.6161 35.492 87.3563 40.5644 87.3563C45.6368 87.3563 49.876 82.3645 52.7003 74.7949C50.9549 74.1306 49.0428 73.2148 46.9642 72.217C44.7189 78.2914 42.2251 81.036 40.5644 81.036V81.0332ZM23.4409 72.9632C16.5413 75.4591 6.06608 77.955 1.99349 71.7987C-0.0851613 68.7205 -0.833591 62.8129 7.14777 52.0803C9.22643 49.2508 11.7202 46.4242 14.1293 43.9283C19.6988 38.2723 26.0167 32.7802 34.1618 27.1213C30.2559 24.9589 25.9319 22.8786 21.7746 21.3805C17.4507 19.8004 13.7114 18.8846 10.8024 18.8846C8.97224 18.8846 7.56011 19.3001 7.14495 19.9672C6.64505 20.6314 6.64505 22.7966 8.72371 26.6238H9.47214C13.2962 26.6238 16.3718 29.784 16.3718 33.6112C16.3718 37.4384 13.2962 40.6834 9.47214 40.6834C5.64809 40.6834 2.57247 37.5232 2.57247 33.6112C2.57247 32.3647 2.90573 31.1973 3.48753 30.1995C-0.500328 23.0453 0.330005 18.8026 1.99349 16.3067C3.15709 14.5599 5.65091 12.4795 10.8052 12.4795C19.9501 12.4795 32.2526 18.5539 40.2312 23.2121C48.2944 18.3023 61.0121 11.7304 70.4055 11.7304C75.5598 11.7304 78.0536 13.8108 79.2172 15.6396C81.2959 18.7178 82.0443 24.6254 74.063 35.2732C62.8422 50.3306 40.5616 66.6373 23.4381 72.9604L23.4409 72.9632ZM69.0781 31.4488C74.5657 24.1279 74.7295 20.2187 74.0658 19.2181C73.5659 18.5539 72.2357 18.1355 70.4084 18.1355C63.3421 18.1355 52.4517 23.4608 46.3005 27.0365C50.873 30.1147 55.1941 33.2748 59.1029 36.5198C57.606 38.0179 56.0272 39.516 54.4485 40.9293C50.1245 37.3508 45.3035 33.8571 40.234 30.697C34.4979 34.5242 28.7618 38.9337 23.5257 43.6768C27.4316 47.0885 32.0888 50.7489 37.0765 54.1606C35.1644 55.3252 33.2524 56.4898 31.0071 57.6543C26.8498 54.7429 22.7772 51.498 18.9532 48.0863C8.64463 58.5701 5.82037 66.1398 7.14777 68.2202C7.64766 68.8844 8.97789 69.3028 10.8052 69.3028C19.3683 69.3028 32.9163 61.8971 40.9796 56.6565C50.7882 50.1666 62.0118 40.9321 69.0753 31.4488H69.0781ZM77.7232 57.2388C78.2231 56.241 78.5535 55.1584 78.5535 53.9939C78.5535 50.0847 75.4779 46.9217 71.6539 46.9217C67.8298 46.9217 64.7542 50.0818 64.7542 53.9939C64.7542 57.9059 67.8298 60.9812 71.6539 60.9812H72.5689C74.5629 64.6417 74.5629 66.7221 74.0658 67.4711C73.6506 68.1354 72.2357 68.4689 70.4084 68.4689C64.5904 68.4689 56.4424 65.0572 51.2062 62.4793C49.4608 63.7259 47.3003 65.142 45.2216 66.5553C52.2032 70.2977 62.5117 74.874 70.4084 74.874C75.5626 74.874 78.0565 72.7936 79.2201 71.1316C80.8836 68.6357 81.7139 64.393 77.7232 57.2388Z" fill="white"/>
<path d="M34.2465 15.2241C32.1679 14.1415 30.3406 13.3105 28.5105 12.5614C31.3376 4.99179 35.4101 0 40.5644 0C45.7187 0 49.7094 4.74305 52.4517 11.9792C50.7063 12.7282 48.7943 13.644 46.7157 14.7238C44.637 8.98296 42.1432 6.40509 40.5644 6.40509C38.9857 6.40509 36.4918 9.14973 34.2465 15.2241ZM40.5644 81.0332C39.0676 81.0332 36.5737 78.4553 34.4951 72.7145C32.3345 73.7971 30.5044 74.6281 28.759 75.3772C31.5014 82.6161 35.492 87.3563 40.5644 87.3563C45.6368 87.3563 49.876 82.3645 52.7003 74.7949C50.9549 74.1306 49.0428 73.2148 46.9642 72.217C44.7189 78.2914 42.2251 81.036 40.5644 81.036V81.0332ZM23.4409 72.9632C16.5413 75.4591 6.06608 77.955 1.99349 71.7987C-0.0851613 68.7205 -0.833591 62.8129 7.14777 52.0803C9.22643 49.2508 11.7202 46.4242 14.1293 43.9283C19.6988 38.2723 26.0167 32.7802 34.1618 27.1213C30.2559 24.9589 25.9319 22.8786 21.7746 21.3805C17.4507 19.8004 13.7114 18.8846 10.8024 18.8846C8.97224 18.8846 7.56011 19.3001 7.14495 19.9672C6.64505 20.6314 6.64505 22.7966 8.72371 26.6238H9.47214C13.2962 26.6238 16.3718 29.784 16.3718 33.6112C16.3718 37.4384 13.2962 40.6834 9.47214 40.6834C5.64809 40.6834 2.57247 37.5232 2.57247 33.6112C2.57247 32.3647 2.90573 31.1973 3.48753 30.1995C-0.500328 23.0453 0.330005 18.8026 1.99349 16.3067C3.15709 14.5599 5.65091 12.4795 10.8052 12.4795C19.9501 12.4795 32.2526 18.5539 40.2312 23.2121C48.2944 18.3023 61.0121 11.7304 70.4055 11.7304C75.5598 11.7304 78.0536 13.8108 79.2172 15.6396C81.2959 18.7178 82.0443 24.6254 74.063 35.2732C62.8422 50.3306 40.5616 66.6373 23.4381 72.9604L23.4409 72.9632ZM69.0781 31.4488C74.5657 24.1279 74.7295 20.2187 74.0658 19.2181C73.5659 18.5539 72.2357 18.1355 70.4084 18.1355C63.3421 18.1355 52.4517 23.4608 46.3005 27.0365C50.873 30.1147 55.1941 33.2748 59.1029 36.5198C57.606 38.0179 56.0272 39.516 54.4485 40.9293C50.1245 37.3508 45.3035 33.8571 40.234 30.697C34.4979 34.5242 28.7618 38.9337 23.5257 43.6768C27.4316 47.0885 32.0888 50.7489 37.0765 54.1606C35.1644 55.3252 33.2524 56.4898 31.0071 57.6543C26.8498 54.7429 22.7772 51.498 18.9532 48.0863C8.64463 58.5701 5.82037 66.1398 7.14777 68.2202C7.64766 68.8844 8.97789 69.3028 10.8052 69.3028C19.3683 69.3028 32.9163 61.8971 40.9796 56.6565C50.7882 50.1666 62.0118 40.9321 69.0753 31.4488H69.0781ZM77.7232 57.2388C78.2231 56.241 78.5535 55.1584 78.5535 53.9939C78.5535 50.0847 75.4779 46.9217 71.6539 46.9217C67.8298 46.9217 64.7542 50.0818 64.7542 53.9939C64.7542 57.9059 67.8298 60.9812 71.6539 60.9812H72.5689C74.5629 64.6417 74.5629 66.7221 74.0658 67.4711C73.6506 68.1354 72.2357 68.4689 70.4084 68.4689C64.5904 68.4689 56.4424 65.0572 51.2062 62.4793C49.4608 63.7259 47.3003 65.142 45.2216 66.5553C52.2032 70.2977 62.5117 74.874 70.4084 74.874C75.5626 74.874 78.0565 72.7936 79.2201 71.1316C80.8836 68.6357 81.7139 64.393 77.7232 57.2388Z" fill="url(#paint0_linear_18_73)"/>
</g>
<defs>
<linearGradient id="paint0_linear_18_73" x1="0.606109" y1="29.1188" x2="78.6401" y2="41.5004" gradientUnits="userSpaceOnUse">
<stop stop-color="#AE67FA"/>
<stop offset="0.973958" stop-color="white"/>
</linearGradient>
<clipPath id="clip0_18_73">
<rect width="80" height="87.3563" fill="white" transform="translate(0.607117)"/>
</clipPath>
</defs>
</svg>
