<svg width="22" height="22" viewBox="0 0 22 22" fill="none" xmlns="http://www.w3.org/2000/svg">
<path d="M21.0661 15.2359C21.0661 19.027 18.8061 21.287 15.015 21.287H13.7756C13.2028 21.287 12.7341 20.8184 12.7341 20.2455V14.2361C12.7341 13.9549 12.9633 13.7153 13.2445 13.7153L15.0775 13.6841C15.2233 13.6737 15.3483 13.5695 15.3796 13.4237L15.7441 11.4344C15.7753 11.247 15.6295 11.0699 15.4316 11.0699L13.2132 11.1012C12.9216 11.1012 12.6925 10.872 12.6821 10.5908L12.6404 8.03915C12.6404 7.87251 12.7758 7.72671 12.9529 7.72671L15.4525 7.68504C15.6295 7.68504 15.7649 7.54966 15.7649 7.3726L15.7233 4.87298C15.7233 4.69593 15.5879 4.56054 15.4108 4.56054L12.5988 4.60221C10.8699 4.63346 9.49508 6.04989 9.52633 7.77878L9.5784 10.6429C9.58882 10.9345 9.35968 11.1637 9.06807 11.1741L7.81827 11.1949C7.64121 11.1949 7.50583 11.3303 7.50583 11.5073L7.53707 13.4862C7.53707 13.6633 7.67246 13.7986 7.84951 13.7986L9.09931 13.7778C9.39093 13.7778 9.62006 14.0069 9.63048 14.2882L9.72421 20.2247C9.73463 20.8079 9.26595 21.287 8.68271 21.287H6.28726C2.4962 21.287 0.236145 19.027 0.236145 15.2255V6.50815C0.236145 2.71709 2.4962 0.457031 6.28726 0.457031H15.015C18.8061 0.457031 21.0661 2.71709 21.0661 6.50815V15.2359Z" fill="#161A24"/>
</svg>
