<svg width="559" height="681" viewBox="0 0 559 681" fill="none" xmlns="http://www.w3.org/2000/svg">
<path d="M411.639 413.926C411.639 312.496 329.415 230.271 227.985 230.271H0V680.849H411.639V413.926Z" fill="white"/>
<path d="M411.639 413.926C411.639 312.496 329.415 230.271 227.985 230.271H0V680.849H411.639V413.926Z" fill="url(#paint0_linear_1_5837)"/>
<path fill-rule="evenodd" clip-rule="evenodd" d="M253.103 239.595C221.648 239.595 196.149 214.096 196.149 182.642C196.149 151.187 221.648 125.688 253.103 125.688C284.557 125.688 310.056 151.187 310.056 182.642C310.056 214.096 284.557 239.595 253.103 239.595ZM253.103 242.904C219.821 242.904 192.84 215.924 192.84 182.642C192.84 149.36 219.821 122.379 253.103 122.379C286.385 122.379 313.365 149.36 313.365 182.642C313.365 215.924 286.385 242.904 253.103 242.904Z" fill="#042C54"/>
<path fill-rule="evenodd" clip-rule="evenodd" d="M253.103 271.117C204.239 271.117 164.627 231.505 164.627 182.642C164.627 133.778 204.239 94.1664 253.103 94.1664C301.966 94.1664 341.578 133.778 341.578 182.642C341.578 231.505 301.966 271.117 253.103 271.117ZM253.103 274.426C202.411 274.426 161.318 233.333 161.318 182.642C161.318 131.951 202.411 90.8573 253.103 90.8573C303.794 90.8573 344.887 131.951 344.887 182.642C344.887 233.333 303.794 274.426 253.103 274.426Z" fill="#042C54"/>
<path fill-rule="evenodd" clip-rule="evenodd" d="M253.103 321.182C176.589 321.182 114.563 259.155 114.563 182.642C114.563 106.129 176.589 44.1022 253.103 44.1022C329.616 44.1022 391.642 106.129 391.642 182.642C391.642 259.155 329.616 321.182 253.103 321.182ZM253.103 324.491C174.762 324.491 111.254 260.983 111.254 182.642C111.254 104.301 174.762 40.7931 253.103 40.7931C331.444 40.7931 394.951 104.301 394.951 182.642C394.951 260.983 331.444 324.491 253.103 324.491Z" fill="#042C54"/>
<path fill-rule="evenodd" clip-rule="evenodd" d="M253.103 361.975C154.06 361.975 73.7699 281.685 73.7699 182.642C73.7699 83.5991 154.06 3.30909 253.103 3.30909C352.145 3.30909 432.435 83.5991 432.435 182.642C432.435 281.685 352.145 361.975 253.103 361.975ZM253.103 365.284C152.232 365.284 70.4608 283.512 70.4608 182.642C70.4608 81.7715 152.232 0 253.103 0C353.973 0 435.745 81.7715 435.745 182.642C435.745 283.512 353.973 365.284 253.103 365.284Z" fill="#042C54"/>
<path d="M558.124 163.03C558.124 153.892 550.716 146.484 541.578 146.484H379.975C370.837 146.484 363.429 153.892 363.429 163.03V213.379C363.429 222.517 370.837 229.925 379.975 229.925H541.578C550.716 229.925 558.124 222.517 558.124 213.379V163.03Z" fill="white"/>
<path d="M558.124 163.03C558.124 153.892 550.716 146.484 541.578 146.484H379.975C370.837 146.484 363.429 153.892 363.429 163.03V213.379C363.429 222.517 370.837 229.925 379.975 229.925H541.578C550.716 229.925 558.124 222.517 558.124 213.379V163.03Z" fill="url(#paint1_linear_1_5837)"/>
<path d="M512.2 192.224C511.487 192.357 510.787 192.414 510.1 192.394C509.42 192.381 508.81 192.257 508.27 192.024C507.73 191.784 507.32 191.407 507.04 190.894C506.793 190.427 506.663 189.951 506.65 189.464C506.637 188.977 506.63 188.427 506.63 187.814V178.424H509.03V187.674C509.03 188.107 509.033 188.487 509.04 188.814C509.053 189.141 509.123 189.407 509.25 189.614C509.49 190.014 509.873 190.237 510.4 190.284C510.927 190.331 511.527 190.304 512.2 190.204V192.224ZM504.67 183.314V181.424H512.2V183.314H504.67Z" fill="#161A24"/>
<path d="M497.882 192.224V181.424H500.012V184.054L499.752 183.714C499.885 183.354 500.062 183.028 500.282 182.734C500.508 182.434 500.778 182.188 501.092 181.994C501.358 181.814 501.652 181.674 501.972 181.574C502.298 181.468 502.632 181.404 502.972 181.384C503.312 181.358 503.642 181.371 503.962 181.424V183.674C503.642 183.581 503.272 183.551 502.852 183.584C502.438 183.618 502.065 183.734 501.732 183.934C501.398 184.114 501.125 184.344 500.912 184.624C500.705 184.904 500.552 185.224 500.452 185.584C500.352 185.938 500.302 186.321 500.302 186.734V192.224H497.882Z" fill="#161A24"/>
<path d="M489.378 192.524C488.598 192.524 487.938 192.377 487.398 192.084C486.858 191.784 486.448 191.387 486.168 190.894C485.895 190.401 485.758 189.857 485.758 189.264C485.758 188.744 485.845 188.277 486.018 187.864C486.192 187.444 486.458 187.084 486.818 186.784C487.178 186.477 487.645 186.227 488.218 186.034C488.652 185.894 489.158 185.767 489.738 185.654C490.325 185.541 490.958 185.437 491.638 185.344C492.325 185.244 493.042 185.137 493.788 185.024L492.928 185.514C492.935 184.767 492.768 184.217 492.428 183.864C492.088 183.511 491.515 183.334 490.708 183.334C490.222 183.334 489.752 183.447 489.298 183.674C488.845 183.901 488.528 184.291 488.348 184.844L486.148 184.154C486.415 183.241 486.922 182.507 487.668 181.954C488.422 181.401 489.435 181.124 490.708 181.124C491.668 181.124 492.512 181.281 493.238 181.594C493.972 181.907 494.515 182.421 494.868 183.134C495.062 183.514 495.178 183.904 495.218 184.304C495.258 184.697 495.278 185.127 495.278 185.594V192.224H493.168V189.884L493.518 190.264C493.032 191.044 492.462 191.617 491.808 191.984C491.162 192.344 490.352 192.524 489.378 192.524ZM489.858 190.604C490.405 190.604 490.872 190.507 491.258 190.314C491.645 190.121 491.952 189.884 492.178 189.604C492.412 189.324 492.568 189.061 492.648 188.814C492.775 188.507 492.845 188.157 492.858 187.764C492.878 187.364 492.888 187.041 492.888 186.794L493.628 187.014C492.902 187.127 492.278 187.227 491.758 187.314C491.238 187.401 490.792 187.484 490.418 187.564C490.045 187.637 489.715 187.721 489.428 187.814C489.148 187.914 488.912 188.031 488.718 188.164C488.525 188.297 488.375 188.451 488.268 188.624C488.168 188.797 488.118 189.001 488.118 189.234C488.118 189.501 488.185 189.737 488.318 189.944C488.452 190.144 488.645 190.304 488.898 190.424C489.158 190.544 489.478 190.604 489.858 190.604Z" fill="#161A24"/>
<path d="M477.855 192.524C477.075 192.524 476.415 192.377 475.875 192.084C475.335 191.784 474.925 191.387 474.645 190.894C474.371 190.401 474.235 189.857 474.235 189.264C474.235 188.744 474.321 188.277 474.495 187.864C474.668 187.444 474.935 187.084 475.295 186.784C475.655 186.477 476.121 186.227 476.695 186.034C477.128 185.894 477.635 185.767 478.215 185.654C478.801 185.541 479.435 185.437 480.115 185.344C480.801 185.244 481.518 185.137 482.265 185.024L481.405 185.514C481.411 184.767 481.245 184.217 480.905 183.864C480.565 183.511 479.991 183.334 479.185 183.334C478.698 183.334 478.228 183.447 477.775 183.674C477.321 183.901 477.005 184.291 476.825 184.844L474.625 184.154C474.891 183.241 475.398 182.507 476.145 181.954C476.898 181.401 477.911 181.124 479.185 181.124C480.145 181.124 480.988 181.281 481.715 181.594C482.448 181.907 482.991 182.421 483.345 183.134C483.538 183.514 483.655 183.904 483.695 184.304C483.735 184.697 483.755 185.127 483.755 185.594V192.224H481.645V189.884L481.995 190.264C481.508 191.044 480.938 191.617 480.285 191.984C479.638 192.344 478.828 192.524 477.855 192.524ZM478.335 190.604C478.881 190.604 479.348 190.507 479.735 190.314C480.121 190.121 480.428 189.884 480.655 189.604C480.888 189.324 481.045 189.061 481.125 188.814C481.251 188.507 481.321 188.157 481.335 187.764C481.355 187.364 481.365 187.041 481.365 186.794L482.105 187.014C481.378 187.127 480.755 187.227 480.235 187.314C479.715 187.401 479.268 187.484 478.895 187.564C478.521 187.637 478.191 187.721 477.905 187.814C477.625 187.914 477.388 188.031 477.195 188.164C477.001 188.297 476.851 188.451 476.745 188.624C476.645 188.797 476.595 189.001 476.595 189.234C476.595 189.501 476.661 189.737 476.795 189.944C476.928 190.144 477.121 190.304 477.375 190.424C477.635 190.544 477.955 190.604 478.335 190.604Z" fill="#161A24"/>
<path d="M472.512 192.224C471.799 192.357 471.099 192.414 470.412 192.394C469.732 192.381 469.122 192.257 468.582 192.024C468.042 191.784 467.632 191.407 467.352 190.894C467.106 190.427 466.976 189.951 466.962 189.464C466.949 188.977 466.942 188.427 466.942 187.814V178.424H469.342V187.674C469.342 188.107 469.346 188.487 469.352 188.814C469.366 189.141 469.436 189.407 469.562 189.614C469.802 190.014 470.186 190.237 470.712 190.284C471.239 190.331 471.839 190.304 472.512 190.204V192.224ZM464.982 183.314V181.424H472.512V183.314H464.982Z" fill="#161A24"/>
<path d="M458.368 192.524C457.315 192.524 456.365 192.341 455.518 191.974C454.678 191.607 453.985 191.084 453.438 190.404C452.898 189.717 452.555 188.904 452.408 187.964L454.908 187.584C455.121 188.437 455.558 189.097 456.218 189.564C456.885 190.031 457.651 190.264 458.518 190.264C459.031 190.264 459.515 190.184 459.968 190.024C460.421 189.864 460.788 189.631 461.068 189.324C461.355 189.017 461.498 188.641 461.498 188.194C461.498 187.994 461.465 187.811 461.398 187.644C461.331 187.471 461.231 187.317 461.098 187.184C460.971 187.051 460.805 186.931 460.598 186.824C460.398 186.711 460.165 186.614 459.898 186.534L456.178 185.434C455.858 185.341 455.511 185.217 455.138 185.064C454.771 184.904 454.421 184.687 454.088 184.414C453.761 184.134 453.491 183.781 453.278 183.354C453.071 182.921 452.968 182.387 452.968 181.754C452.968 180.827 453.201 180.051 453.668 179.424C454.141 178.791 454.775 178.317 455.568 178.004C456.368 177.691 457.255 177.537 458.228 177.544C459.215 177.551 460.095 177.721 460.868 178.054C461.641 178.381 462.288 178.857 462.808 179.484C463.328 180.111 463.695 180.867 463.908 181.754L461.318 182.204C461.211 181.697 461.005 181.267 460.698 180.914C460.398 180.554 460.028 180.281 459.588 180.094C459.155 179.907 458.691 179.807 458.198 179.794C457.718 179.787 457.271 179.861 456.858 180.014C456.451 180.161 456.121 180.374 455.868 180.654C455.621 180.934 455.498 181.261 455.498 181.634C455.498 181.987 455.605 182.277 455.818 182.504C456.031 182.724 456.295 182.901 456.608 183.034C456.928 183.161 457.251 183.267 457.578 183.354L460.158 184.074C460.511 184.167 460.908 184.294 461.348 184.454C461.788 184.614 462.211 184.837 462.618 185.124C463.025 185.411 463.358 185.787 463.618 186.254C463.885 186.721 464.018 187.314 464.018 188.034C464.018 188.781 463.861 189.437 463.548 190.004C463.241 190.564 462.825 191.031 462.298 191.404C461.771 191.777 461.168 192.057 460.488 192.244C459.815 192.431 459.108 192.524 458.368 192.524Z" fill="#161A24"/>
<path fill-rule="evenodd" clip-rule="evenodd" d="M412.54 176.307H409.707C408.925 176.307 408.29 176.942 408.29 177.724V180.557C408.29 181.34 408.925 181.974 409.707 181.974H412.54C413.323 181.974 413.957 181.34 413.957 180.557V177.724C413.957 176.942 413.323 176.307 412.54 176.307ZM409.707 173.474C407.36 173.474 405.457 175.377 405.457 177.724V180.557C405.457 182.905 407.36 184.807 409.707 184.807H412.54C414.887 184.807 416.79 182.905 416.79 180.557V177.724C416.79 175.377 414.887 173.474 412.54 173.474H409.707Z" fill="#161A24"/>
<path fill-rule="evenodd" clip-rule="evenodd" d="M412.54 190.474H409.707C408.925 190.474 408.29 191.108 408.29 191.891V194.724C408.29 195.506 408.925 196.141 409.707 196.141H412.54C413.323 196.141 413.957 195.506 413.957 194.724V191.891C413.957 191.108 413.323 190.474 412.54 190.474ZM409.707 187.641C407.36 187.641 405.457 189.544 405.457 191.891V194.724C405.457 197.071 407.36 198.974 409.707 198.974H412.54C414.887 198.974 416.79 197.071 416.79 194.724V191.891C416.79 189.544 414.887 187.641 412.54 187.641H409.707Z" fill="#161A24"/>
<path fill-rule="evenodd" clip-rule="evenodd" d="M426.707 176.307H423.874C423.091 176.307 422.457 176.942 422.457 177.724V180.557C422.457 181.34 423.091 181.974 423.874 181.974H426.707C427.489 181.974 428.124 181.34 428.124 180.557V177.724C428.124 176.942 427.489 176.307 426.707 176.307ZM423.874 173.474C421.526 173.474 419.624 175.377 419.624 177.724V180.557C419.624 182.905 421.526 184.807 423.874 184.807H426.707C429.054 184.807 430.957 182.905 430.957 180.557V177.724C430.957 175.377 429.054 173.474 426.707 173.474H423.874Z" fill="#161A24"/>
<path fill-rule="evenodd" clip-rule="evenodd" d="M426.707 190.474H423.874C423.091 190.474 422.457 191.108 422.457 191.891V194.724C422.457 195.506 423.091 196.141 423.874 196.141H426.707C427.489 196.141 428.124 195.506 428.124 194.724V191.891C428.124 191.108 427.489 190.474 426.707 190.474ZM423.874 187.641C421.526 187.641 419.624 189.544 419.624 191.891V194.724C419.624 197.071 421.526 198.974 423.874 198.974H426.707C429.054 198.974 430.957 197.071 430.957 194.724V191.891C430.957 189.544 429.054 187.641 426.707 187.641H423.874Z" fill="#161A24"/>
<path d="M140.922 79.5894C140.922 70.4516 133.514 63.0439 124.376 63.0439H74.0267C64.8889 63.0439 57.4812 70.4516 57.4812 79.5894V129.939C57.4812 139.077 64.8889 146.484 74.0267 146.484H124.376C133.514 146.484 140.922 139.077 140.922 129.939V79.5894Z" fill="#042C54"/>
<path fill-rule="evenodd" clip-rule="evenodd" d="M88.4109 97.1809C88.4109 96.3065 89.1198 95.5976 89.9943 95.5976H102.661C103.535 95.5976 104.244 96.3065 104.244 97.1809C104.244 98.0554 103.535 98.7643 102.661 98.7643H89.9943C89.1198 98.7643 88.4109 98.0554 88.4109 97.1809Z" fill="white"/>
<path fill-rule="evenodd" clip-rule="evenodd" d="M88.4109 103.514C88.4109 102.64 89.1198 101.931 89.9943 101.931H96.3276C97.202 101.931 97.9109 102.64 97.9109 103.514C97.9109 104.389 97.202 105.098 96.3276 105.098H89.9943C89.1198 105.098 88.4109 104.389 88.4109 103.514Z" fill="white"/>
<path fill-rule="evenodd" clip-rule="evenodd" d="M87.967 110.582C88.5361 110.107 89.2534 109.848 89.9942 109.848H107.411C108.285 109.848 108.994 109.139 108.994 108.264V92.4309C108.994 91.5565 108.285 90.8476 107.411 90.8476H85.2442C84.3698 90.8476 83.6609 91.5565 83.6609 92.4309V114.17L87.967 110.582ZM89.9942 113.014H107.411C110.034 113.014 112.161 110.888 112.161 108.264V92.4309C112.161 89.8076 110.034 87.6809 107.411 87.6809H85.2442C82.6209 87.6809 80.4942 89.8076 80.4942 92.4309V114.17C80.4942 116.855 83.6256 118.321 85.6881 116.603L89.9942 113.014Z" fill="white"/>
<defs>
<linearGradient id="paint0_linear_1_5837" x1="411.64" y1="380.464" x2="10.0618" y2="444.029" gradientUnits="userSpaceOnUse">
<stop stop-color="#AE67FA"/>
<stop offset="0.973958" stop-color="white"/>
</linearGradient>
<linearGradient id="paint1_linear_1_5837" x1="558.124" y1="174.298" x2="390.78" y2="241.951" gradientUnits="userSpaceOnUse">
<stop stop-color="#AE67FA"/>
<stop offset="0.973958" stop-color="white"/>
</linearGradient>
</defs>
</svg>
