<svg width="23" height="24" viewBox="0 0 23 24" fill="none" xmlns="http://www.w3.org/2000/svg">
<path fill-rule="evenodd" clip-rule="evenodd" d="M2.12489 2.44236C3.57587 0.991383 5.72768 0.457031 8.43006 0.457031H14.6791C17.3814 0.457031 19.5332 0.991383 20.9842 2.44236C22.4352 3.89334 22.9696 6.04515 22.9696 8.74753V14.9965C22.9696 17.6989 22.4352 19.8507 20.9842 21.3017C19.5332 22.7527 17.3814 23.287 14.6791 23.287H8.43006C5.72768 23.287 3.57587 22.7527 2.12489 21.3017C0.673908 19.8507 0.139557 17.6989 0.139557 14.9965V8.74753C0.139557 6.04515 0.673908 3.89334 2.12489 2.44236ZM3.5391 3.85658C2.64671 4.74897 2.13956 6.24241 2.13956 8.74753V14.9965C2.13956 17.5017 2.64671 18.9951 3.5391 19.8875C4.4315 20.7799 5.92494 21.287 8.43006 21.287H14.6791C17.1842 21.287 18.6776 20.7799 19.57 19.8875C20.4624 18.9951 20.9696 17.5017 20.9696 14.9965V8.74753C20.9696 6.24241 20.4624 4.74897 19.57 3.85658C18.6776 2.96418 17.1842 2.45703 14.6791 2.45703H8.43006C5.92494 2.45703 4.4315 2.96418 3.5391 3.85658Z" fill="#161A24"/>
<path fill-rule="evenodd" clip-rule="evenodd" d="M6.90931 11.8723C6.90931 9.3068 8.98906 7.22705 11.5546 7.22705C14.1201 7.22705 16.1998 9.3068 16.1998 11.8723C16.1998 14.4378 14.1201 16.5176 11.5546 16.5176C8.98906 16.5176 6.90931 14.4378 6.90931 11.8723ZM11.5546 9.22705C10.0936 9.22705 8.90931 10.4114 8.90931 11.8723C8.90931 13.3332 10.0936 14.5176 11.5546 14.5176C13.0155 14.5176 14.1998 13.3332 14.1998 11.8723C14.1998 10.4114 13.0155 9.22705 11.5546 9.22705Z" fill="#161A24"/>
<path fill-rule="evenodd" clip-rule="evenodd" d="M16.4245 6.66455C16.4245 6.11227 16.8723 5.66455 17.4245 5.66455H17.4372C17.9895 5.66455 18.4372 6.11227 18.4372 6.66455C18.4372 7.21684 17.9895 7.66455 17.4372 7.66455H17.4245C16.8723 7.66455 16.4245 7.21684 16.4245 6.66455Z" fill="#161A24"/>
</svg>
