<svg width="25" height="25" viewBox="0 0 25 25" fill="none" xmlns="http://www.w3.org/2000/svg">
<path d="M4.52196 10.4728C4.52196 9.55969 4.69351 8.70471 5.03661 7.90784C5.3797 7.10543 5.85562 6.39986 6.46434 5.79114C7.07306 5.18241 7.77586 4.7065 8.57274 4.3634C9.37515 4.0203 10.2329 3.84875 11.146 3.84875C12.0591 3.84875 12.914 4.0203 13.7109 4.3634C14.5133 4.7065 15.2189 5.18241 15.8276 5.79114C16.4363 6.39986 16.9123 7.10543 17.2554 7.90784C17.5985 8.70471 17.77 9.55969 17.77 10.4728C17.77 11.2309 17.6483 11.9503 17.4048 12.631C17.1668 13.3116 16.8348 13.9287 16.4087 14.4821L20.4678 18.566C20.5563 18.6546 20.6227 18.757 20.667 18.8732C20.7168 18.9894 20.7417 19.1139 20.7417 19.2467C20.7417 19.4293 20.7002 19.5953 20.6172 19.7448C20.5397 19.8942 20.429 20.0104 20.2851 20.0934C20.1413 20.1819 19.9752 20.2262 19.7871 20.2262C19.6543 20.2262 19.527 20.2013 19.4053 20.1515C19.289 20.1072 19.1811 20.038 19.0815 19.944L14.9975 15.8517C14.4552 16.2391 13.8576 16.5434 13.2046 16.7648C12.5516 16.9861 11.8654 17.0968 11.146 17.0968C10.2329 17.0968 9.37515 16.9253 8.57274 16.5822C7.77586 16.2391 7.07306 15.7631 6.46434 15.1544C5.85562 14.5457 5.3797 13.8429 5.03661 13.046C4.69351 12.2436 4.52196 11.3859 4.52196 10.4728ZM5.94139 10.4728C5.94139 11.1922 6.0742 11.8673 6.33983 12.4982C6.61099 13.1235 6.98452 13.6741 7.46043 14.15C7.94188 14.6259 8.49526 14.9995 9.12059 15.2706C9.75145 15.5418 10.4266 15.6774 11.146 15.6774C11.8654 15.6774 12.5377 15.5418 13.1631 15.2706C13.7939 14.9995 14.3473 14.6259 14.8232 14.15C15.2991 13.6741 15.6727 13.1235 15.9438 12.4982C16.215 11.8673 16.3506 11.1922 16.3506 10.4728C16.3506 9.75338 16.215 9.08101 15.9438 8.45569C15.6727 7.82483 15.2991 7.27144 14.8232 6.79553C14.3473 6.31409 13.7939 5.94055 13.1631 5.67493C12.5377 5.40377 11.8654 5.26819 11.146 5.26819C10.4266 5.26819 9.75145 5.40377 9.12059 5.67493C8.49526 5.94055 7.94188 6.31409 7.46043 6.79553C6.98452 7.27144 6.61099 7.82483 6.33983 8.45569C6.0742 9.08101 5.94139 9.75338 5.94139 10.4728Z" fill="white"/>
<path d="M4.52196 10.4728C4.52196 9.55969 4.69351 8.70471 5.03661 7.90784C5.3797 7.10543 5.85562 6.39986 6.46434 5.79114C7.07306 5.18241 7.77586 4.7065 8.57274 4.3634C9.37515 4.0203 10.2329 3.84875 11.146 3.84875C12.0591 3.84875 12.914 4.0203 13.7109 4.3634C14.5133 4.7065 15.2189 5.18241 15.8276 5.79114C16.4363 6.39986 16.9123 7.10543 17.2554 7.90784C17.5985 8.70471 17.77 9.55969 17.77 10.4728C17.77 11.2309 17.6483 11.9503 17.4048 12.631C17.1668 13.3116 16.8348 13.9287 16.4087 14.4821L20.4678 18.566C20.5563 18.6546 20.6227 18.757 20.667 18.8732C20.7168 18.9894 20.7417 19.1139 20.7417 19.2467C20.7417 19.4293 20.7002 19.5953 20.6172 19.7448C20.5397 19.8942 20.429 20.0104 20.2851 20.0934C20.1413 20.1819 19.9752 20.2262 19.7871 20.2262C19.6543 20.2262 19.527 20.2013 19.4053 20.1515C19.289 20.1072 19.1811 20.038 19.0815 19.944L14.9975 15.8517C14.4552 16.2391 13.8576 16.5434 13.2046 16.7648C12.5516 16.9861 11.8654 17.0968 11.146 17.0968C10.2329 17.0968 9.37515 16.9253 8.57274 16.5822C7.77586 16.2391 7.07306 15.7631 6.46434 15.1544C5.85562 14.5457 5.3797 13.8429 5.03661 13.046C4.69351 12.2436 4.52196 11.3859 4.52196 10.4728ZM5.94139 10.4728C5.94139 11.1922 6.0742 11.8673 6.33983 12.4982C6.61099 13.1235 6.98452 13.6741 7.46043 14.15C7.94188 14.6259 8.49526 14.9995 9.12059 15.2706C9.75145 15.5418 10.4266 15.6774 11.146 15.6774C11.8654 15.6774 12.5377 15.5418 13.1631 15.2706C13.7939 14.9995 14.3473 14.6259 14.8232 14.15C15.2991 13.6741 15.6727 13.1235 15.9438 12.4982C16.215 11.8673 16.3506 11.1922 16.3506 10.4728C16.3506 9.75338 16.215 9.08101 15.9438 8.45569C15.6727 7.82483 15.2991 7.27144 14.8232 6.79553C14.3473 6.31409 13.7939 5.94055 13.1631 5.67493C12.5377 5.40377 11.8654 5.26819 11.146 5.26819C10.4266 5.26819 9.75145 5.40377 9.12059 5.67493C8.49526 5.94055 7.94188 6.31409 7.46043 6.79553C6.98452 7.27144 6.61099 7.82483 6.33983 8.45569C6.0742 9.08101 5.94139 9.75338 5.94139 10.4728Z" fill="url(#paint0_linear_42_2252)"/>
<defs>
<linearGradient id="paint0_linear_42_2252" x1="2.13182" y1="8.69316" x2="22.459" y2="12.3912" gradientUnits="userSpaceOnUse">
<stop stop-color="#AE67FA"/>
<stop offset="0.973958" stop-color="white"/>
</linearGradient>
</defs>
</svg>
