<svg width="19" height="20" viewBox="0 0 19 20" fill="none" xmlns="http://www.w3.org/2000/svg">
<path d="M18.7775 9.97904V10.6456C18.7775 11.0138 18.4791 11.3123 18.1109 11.3123H10.4442V18.979C10.4442 19.3471 10.1457 19.6456 9.77747 19.6456H9.11087C8.74267 19.6456 8.44417 19.3471 8.44417 18.979V11.3123H0.77751C0.40932 11.3123 0.11084 11.0138 0.11084 10.6456V9.97904C0.11084 9.61084 0.40932 9.31234 0.77751 9.31234H8.44417V1.64566C8.44417 1.27747 8.74267 0.979004 9.11087 0.979004H9.77747C10.1457 0.979004 10.4442 1.27747 10.4442 1.64566V9.31234H18.1109C18.4791 9.31234 18.7775 9.61084 18.7775 9.97904Z" fill="white"/>
</svg>
