<svg width="48" height="49" viewBox="0 0 48 49" fill="none" xmlns="http://www.w3.org/2000/svg">
<rect x="0.5" y="0.763672" width="47" height="47" rx="3.5" fill="white"/>
<rect x="0.5" y="0.763672" width="47" height="47" rx="3.5" fill="url(#paint0_linear_17_183)"/>
<rect x="0.5" y="0.763672" width="47" height="47" rx="3.5" stroke="white"/>
<path d="M22.3875 28.4607C22.1227 28.4607 21.8711 28.3548 21.6857 28.1694L18.4817 24.9654C18.0978 24.5814 18.0978 23.9459 18.4817 23.5619C18.8657 23.1779 19.5012 23.1779 19.8852 23.5619L22.3875 26.0643L28.0807 20.3711C28.4646 19.9871 29.1002 19.9871 29.4841 20.3711C29.8681 20.7551 29.8681 21.3906 29.4841 21.7745L23.0892 28.1694C22.9038 28.3548 22.6523 28.4607 22.3875 28.4607Z" fill="#161A24"/>
<path d="M23.9901 38.4967C23.156 38.4967 22.3218 38.2187 21.6731 37.6626L19.5811 35.8619C19.3693 35.6766 18.8397 35.4912 18.5616 35.4912H16.2843C14.3248 35.4912 12.736 33.9024 12.736 31.9429V29.6789C12.736 29.4008 12.5506 28.8844 12.3653 28.6726L10.5779 26.5674C9.49219 25.2832 9.49219 23.2574 10.5779 21.9732L12.3653 19.868C12.5506 19.6561 12.736 19.1398 12.736 18.8617V16.5845C12.736 14.6249 14.3248 13.0361 16.2843 13.0361H18.5749C18.8529 13.0361 19.3825 12.8375 19.5943 12.6654L21.6863 10.8648C22.9838 9.7526 25.0096 9.7526 26.3071 10.8648L28.399 12.6654C28.6109 12.8508 29.1405 13.0361 29.4185 13.0361H31.6693C33.6288 13.0361 35.2176 14.6249 35.2176 16.5845V18.8353C35.2176 19.1133 35.4162 19.6429 35.6016 19.8547L37.4022 21.9467C38.5144 23.2442 38.5144 25.2699 37.4022 26.5674L35.6016 28.6594C35.4162 28.8712 35.2176 29.4008 35.2176 29.6789V31.9297C35.2176 33.8892 33.6288 35.478 31.6693 35.478H29.4185C29.1405 35.478 28.6109 35.6766 28.399 35.8487L26.3071 37.6494C25.6583 38.2187 24.8242 38.4967 23.9901 38.4967ZM16.2843 15.0221C15.4237 15.0221 14.722 15.7239 14.722 16.5845V18.8485C14.722 19.6032 14.3645 20.5697 13.8746 21.139L12.0872 23.2442C11.6238 23.787 11.6238 24.7271 12.0872 25.2699L13.8746 27.3751C14.3645 27.9576 14.722 28.9109 14.722 29.6656V31.9297C14.722 32.7903 15.4237 33.492 16.2843 33.492H18.5749C19.3428 33.492 20.3093 33.8495 20.8919 34.3526L22.9838 36.1532C23.5267 36.6166 24.48 36.6166 25.0228 36.1532L27.1147 34.3526C27.6973 33.8627 28.6638 33.492 29.4317 33.492H31.6825C32.5431 33.492 33.2449 32.7903 33.2449 31.9297V29.6789C33.2449 28.9109 33.6023 27.9444 34.1055 27.3618L35.9061 25.2699C36.3695 24.7271 36.3695 23.7738 35.9061 23.231L34.1055 21.139C33.6023 20.5565 33.2449 19.5899 33.2449 18.822V16.5845C33.2449 15.7239 32.5431 15.0221 31.6825 15.0221H29.4317C28.6638 15.0221 27.6973 14.6647 27.1147 14.1615L25.0228 12.3609C24.48 11.8975 23.5267 11.8975 22.9838 12.3609L20.8919 14.1748C20.3093 14.6647 19.3295 15.0221 18.5749 15.0221H16.2843Z" fill="#161A24"/>
<defs>
<linearGradient id="paint0_linear_17_183" x1="-5.97413e-07" y1="16.2637" x2="46.601" y2="24.3379" gradientUnits="userSpaceOnUse">
<stop stop-color="#AE67FA"/>
<stop offset="0.973958" stop-color="white"/>
</linearGradient>
</defs>
</svg>
